<?xml version="1.0" standalone="no"?>
<!DOCTYPE svg PUBLIC "-//W3C//DTD SVG 20010904//EN"
 "http://www.w3.org/TR/2001/REC-SVG-20010904/DTD/svg10.dtd">
<svg version="1.0" xmlns="http://www.w3.org/2000/svg"
 width="194.000000pt" height="86.000000pt" viewBox="0 0 194.000000 86.000000"
 preserveAspectRatio="xMidYMid meet">

<g transform="translate(0.000000,86.000000) scale(0.100000,-0.100000)"
fill="#000000" stroke="none">
<path d="M880 800 c0 -28 3 -30 35 -30 32 0 35 2 35 30 0 28 -3 30 -35 30 -32
0 -35 -2 -35 -30z"/>
<path d="M1050 735 c0 -33 -2 -35 -35 -35 -33 0 -35 -2 -25 -20 6 -12 21 -20
35 -20 l25 0 0 -194 c0 -168 2 -195 16 -200 9 -3 79 -6 156 -6 107 0 139 3
136 13 -3 8 -37 13 -113 15 -72 2 -112 7 -117 15 -4 7 -8 90 -8 185 l0 172
114 0 c109 0 114 1 109 20 -5 18 -14 20 -114 20 l-109 0 0 35 c0 33 -2 35 -35
35 -33 0 -35 -2 -35 -35z"/>
<path d="M158 480 l3 -220 34 0 35 0 0 220 0 220 -37 0 -38 0 3 -220z"/>
<path d="M262 683 c3 -16 25 -18 253 -23 l250 -5 3 -52 3 -53 -243 0 c-177 0
-247 -3 -256 -12 -8 -8 -12 -51 -12 -129 0 -94 3 -121 16 -133 13 -14 50 -16
253 -16 171 0 240 3 249 12 9 9 12 9 12 0 0 -7 12 -12 28 -12 l27 0 -3 207
c-2 180 -5 210 -19 221 -13 9 -87 12 -291 12 -255 0 -273 -1 -270 -17z m506
-272 c2 -69 -1 -97 -10 -103 -7 -4 -106 -8 -220 -8 l-208 0 0 105 0 105 218
-2 217 -3 3 -94z"/>
<path d="M880 480 l0 -220 35 0 35 0 0 220 0 220 -35 0 -35 0 0 -220z"/>
<path d="M1402 688 c-17 -17 -17 -399 0 -416 8 -8 61 -12 175 -12 150 0 163 1
173 19 6 12 10 96 10 204 0 165 -2 186 -18 200 -16 14 -43 17 -173 17 -107 0
-159 -4 -167 -12z m286 -210 l2 -188 -115 0 -115 0 0 190 0 191 113 -3 112 -3
3 -187z"/>
<path d="M186 124 c-14 -36 -7 -54 22 -53 23 2 24 2 5 6 -32 6 -29 23 5 24 23
2 24 2 5 6 -32 6 -29 21 5 26 26 4 26 4 -4 6 -21 0 -34 -5 -38 -15z"/>
<path d="M265 110 c-9 -39 -2 -46 33 -34 38 13 39 58 0 62 -22 3 -27 -2 -33
-28z m53 4 c-3 -18 -34 -42 -42 -33 -3 3 -3 15 1 27 6 26 46 32 41 6z"/>
<path d="M362 128 c-17 -17 -15 -45 4 -52 25 -10 29 -7 9 8 -29 21 -12 50 26
42 18 -3 28 -2 24 4 -9 14 -49 12 -63 -2z"/>
<path d="M446 118 c-11 -42 -7 -48 27 -47 30 2 30 2 5 6 -16 2 -28 9 -28 14 0
5 12 10 28 10 23 2 24 2 5 6 -32 6 -29 21 5 26 26 4 26 4 -4 6 -25 1 -33 -4
-38 -21z"/>
<path d="M567 133 c-2 -5 -7 -21 -11 -38 -6 -27 -5 -28 7 -12 8 9 23 17 33 18
14 1 13 3 -6 9 -25 7 -24 9 20 23 8 3 3 6 -12 6 -15 1 -29 -2 -31 -6z"/>
<path d="M637 111 c-20 -34 -22 -50 -5 -33 15 15 48 16 48 0 0 -6 3 -9 6 -5
10 10 -7 67 -20 67 -6 0 -19 -13 -29 -29z m33 -1 c0 -5 -5 -10 -11 -10 -5 0
-7 5 -4 10 3 6 8 10 11 10 2 0 4 -4 4 -10z"/>
<path d="M722 128 c-17 -17 -15 -45 4 -52 25 -10 29 -7 10 7 -25 18 -11 50 20
44 13 -2 24 0 24 4 0 13 -44 11 -58 -3z"/>
<path d="M806 124 c-14 -36 -7 -54 22 -53 23 2 24 2 5 6 -32 6 -29 23 5 24 23
2 24 2 5 6 -32 6 -29 21 5 26 26 4 26 4 -4 6 -21 0 -34 -5 -38 -15z"/>
<path d="M928 131 c9 -5 11 -18 7 -37 -5 -22 -4 -25 4 -14 6 8 11 23 11 32 0
9 8 19 18 21 9 3 1 5 -18 6 -22 0 -30 -2 -22 -8z"/>
<path d="M996 124 c-14 -36 -7 -54 22 -53 23 2 24 2 5 6 -32 6 -29 23 5 24 23
2 24 2 5 6 -32 6 -29 21 5 26 26 4 26 4 -4 6 -21 0 -34 -5 -38 -15z"/>
<path d="M1083 133 c-18 -7 -16 -50 3 -57 25 -10 29 -7 9 8 -26 19 -13 50 20
44 13 -3 22 -1 19 3 -6 10 -31 11 -51 2z"/>
<path d="M1167 133 c-11 -20 -18 -67 -8 -58 11 11 26 65 18 65 -3 0 -8 -3 -10
-7z"/>
<path d="M1217 126 c-4 -10 -7 -25 -6 -34 0 -11 4 -9 10 7 5 13 8 29 6 35 -2
5 -6 2 -10 -8z"/>
<path d="M1250 128 c0 -7 -3 -24 -5 -38 -5 -24 -4 -23 8 3 l13 28 13 -27 c13
-30 25 -24 35 19 4 19 3 26 -4 22 -5 -3 -10 -14 -11 -23 0 -14 -3 -13 -16 6
-17 24 -33 29 -33 10z"/>
<path d="M1342 128 c-17 -17 -15 -45 4 -52 25 -10 29 -7 10 7 -21 15 -12 47
14 47 26 0 34 -18 18 -37 -11 -14 -11 -15 2 -11 8 2 15 16 15 29 0 18 -6 25
-25 27 -14 2 -31 -3 -38 -10z"/>
<path d="M1437 133 c-2 -5 -7 -20 -11 -35 -6 -26 -4 -28 26 -27 26 1 28 3 9 6
-20 4 -22 9 -17 34 5 28 2 38 -7 22z"/>
<path d="M1512 128 c-17 -17 -15 -45 4 -52 25 -10 29 -7 10 7 -21 15 -12 47
14 47 26 0 34 -18 18 -37 -11 -14 -11 -15 2 -11 8 2 15 16 15 29 0 18 -6 25
-25 27 -14 2 -31 -3 -38 -10z"/>
<path d="M1606 125 c-9 -9 -12 -23 -9 -33 6 -14 8 -13 13 8 5 19 13 25 33 25
15 -1 27 3 27 7 0 14 -48 9 -64 -7z"/>
<path d="M1698 128 c5 -7 12 -22 14 -34 3 -19 6 -17 27 15 21 33 21 34 2 17
-19 -17 -21 -17 -27 -2 -3 9 -11 16 -16 16 -7 0 -7 -4 0 -12z"/>
<path d="M398 103 c6 -2 10 -9 6 -14 -3 -5 0 -9 5 -9 6 0 11 7 11 15 0 8 -8
15 -17 14 -11 0 -13 -3 -5 -6z"/>
<path d="M1646 95 c4 -8 10 -15 15 -15 5 0 9 7 9 15 0 8 -7 15 -15 15 -9 0
-12 -6 -9 -15z"/>
</g>
</svg>
