<?xml version="1.0" standalone="no"?>
<!DOCTYPE svg PUBLIC "-//W3C//DTD SVG 20010904//EN"
 "http://www.w3.org/TR/2001/REC-SVG-20010904/DTD/svg10.dtd">
<svg version="1.0" xmlns="http://www.w3.org/2000/svg"
 width="225.000000pt" height="112.000000pt" viewBox="0 0 225.000000 112.000000"
 preserveAspectRatio="xMidYMid meet">
<metadata>
Created by potrace 1.16, written by Peter Selinger 2001-2019
</metadata>
<g transform="translate(0.000000,112.000000) scale(0.100000,-0.100000)"
fill="#000000" stroke="none">
<path d="M1240 945 c0 -42 -2 -45 -27 -46 -16 -1 -34 -1 -40 0 -14 2 -16 -9
-7 -33 4 -10 18 -16 40 -16 l34 0 0 -244 c0 -214 2 -245 17 -257 12 -11 62
-15 200 -17 l183 -3 -12 26 -12 27 -122 -7 c-84 -5 -128 -3 -143 4 -20 11 -21
18 -21 241 l0 230 141 0 c140 0 140 0 137 23 -3 21 -6 22 -140 25 l-138 3 0
44 0 45 -45 0 -45 0 0 -45z"/>
<path d="M98 614 l3 -284 43 0 43 0 6 173 c9 224 9 369 -1 383 -4 6 -27 11
-52 11 l-45 1 3 -284z"/>
<path d="M238 895 c-3 -3 -4 -15 -1 -26 5 -18 17 -19 313 -19 355 0 343 3 338
-84 l-3 -51 -313 -5 c-299 -5 -314 -6 -328 -25 -8 -11 -13 -29 -10 -40 3 -11
6 -80 6 -153 l0 -133 33 -14 c24 -10 98 -14 314 -15 256 0 283 1 299 17 12 13
19 14 22 5 2 -7 21 -12 43 -12 37 0 51 12 29 25 -6 4 -10 100 -10 254 0 219
-2 250 -17 262 -13 11 -87 15 -362 17 -191 2 -349 0 -353 -3z m637 -370 l0
-130 -47 -7 c-26 -5 -150 -7 -275 -6 l-228 3 -3 124 c-1 69 0 131 2 138 4 11
60 13 278 11 l273 -3 0 -130z"/>
<path d="M1030 613 l0 -283 38 0 39 0 5 238 c3 130 3 257 -1 281 -6 43 -7 44
-44 45 l-37 1 0 -282z"/>
<path d="M1703 890 c-31 -13 -35 -45 -31 -302 2 -169 6 -230 16 -240 9 -10 65
-14 208 -16 166 -3 199 -1 220 12 l24 16 0 254 c0 223 -2 255 -17 267 -19 17
-384 24 -420 9z m351 -46 c3 -9 6 -116 6 -239 0 -217 -1 -225 -21 -235 -24
-13 -262 -10 -276 3 -10 10 -17 407 -8 455 l6 32 143 0 c122 0 145 -2 150 -16z"/>
</g>
</svg>
